<?xml version="1.0" encoding="UTF-8" standalone="no"?>
<!-- Created with Inkscape (http://www.inkscape.org/) -->

<svg
   width="24.872461"
   height="24.349155"
   viewBox="0 0 6.7593283 6.617115"
   version="1.1"
   id="svg8"
   sodipodi:docname="logo_ecelular_2024.svg"
   inkscape:version="1.4 (86a8ad7, 2024-10-11)"
   xmlns:inkscape="http://www.inkscape.org/namespaces/inkscape"
   xmlns:sodipodi="http://sodipodi.sourceforge.net/DTD/sodipodi-0.dtd"
   xmlns="http://www.w3.org/2000/svg"
   xmlns:svg="http://www.w3.org/2000/svg"
   xmlns:rdf="http://www.w3.org/1999/02/22-rdf-syntax-ns#"
   xmlns:cc="http://creativecommons.org/ns#"
   xmlns:dc="http://purl.org/dc/elements/1.1/">
  <sodipodi:namedview
     id="namedview1"
     pagecolor="#ffffff"
     bordercolor="#000000"
     borderopacity="0.03921569"
     inkscape:showpageshadow="2"
     inkscape:pageopacity="0.0"
     inkscape:pagecheckerboard="0"
     inkscape:deskcolor="#d1d1d1"
     inkscape:document-units="in"
     showgrid="false"
     inkscape:clip-to-page="true"
     inkscape:zoom="8"
     inkscape:cx="12.25"
     inkscape:cy="14.6875"
     inkscape:window-width="1366"
     inkscape:window-height="697"
     inkscape:window-x="-8"
     inkscape:window-y="-8"
     inkscape:window-maximized="1"
     inkscape:current-layer="svg8" />
  <defs
     id="defs2">
    <clipPath
       clipPathUnits="userSpaceOnUse"
       id="clipPath51">
      <rect
         style="fill:#808080;stroke-width:0.264583"
         id="rect53"
         width="42.359779"
         height="40.957146"
         x="1.4026419"
         y="274.27719" />
    </clipPath>
  </defs>
  <metadata
     id="metadata5">
    <rdf:RDF>
      <cc:Work
         rdf:about="">
        <dc:format>image/svg+xml</dc:format>
        <dc:type
           rdf:resource="http://purl.org/dc/dcmitype/StillImage" />
      </cc:Work>
    </rdf:RDF>
  </metadata>
  <path
     style="fill:#15257f;stroke:none"
     d="m 2.2056239,0.21219716 v 0.004817 H 4.5880904 C 4.5498557,0.18393546 4.478863,0.17327095 4.4308967,0.15760874 4.2902203,0.11167517 4.1446451,0.07696702 3.9986141,0.05204496 3.5717278,-0.020808 3.1416831,-0.0186096 2.7165033,0.06771363 2.5413964,0.10326551 2.3751757,0.15800915 2.2056239,0.21219716 M 1.0610575,0.91060521 5.6687968,0.90097201 C 5.6429994,0.84673641 5.5682163,0.80151481 5.5214277,0.76423371 5.4602212,0.71546441 5.3856744,0.63863801 5.3101988,0.61372591 5.2495919,0.59372101 5.1674014,0.60715901 5.1038821,0.60715901 H 4.6765118 2.0091318 1.6112354 c -0.057208,0 -0.1324863,-0.012508 -0.1866675,0.00753 -0.077793,0.028766 -0.1528795,0.1074388 -0.2161413,0.1590633 -0.045974,0.037517 -0.1216994,0.083331 -0.1473691,0.136857 M 0.48140587,1.6282799 6.2533607,1.6186499 C 6.2442755,1.5724491 6.2043481,1.5272228 6.1780386,1.4885982 6.1108992,1.3900318 6.037367,1.2953324 5.9598315,1.2044184 5.9272509,1.166216 5.8876299,1.1026052 5.8407274,1.081275 5.8165914,1.070299 5.7921024,1.077925 5.7670424,1.078995 c -0.040901,0.00176 -0.08251,-0.00638 -0.1228075,-0.00411 -0.038371,0.00216 -0.05865,0.027436 -0.083581,0.052462 -0.042233,0.042396 -0.085188,0.085315 -0.1248206,0.1300484 -0.022134,0.024982 -0.050443,0.062974 -0.086336,0.066908 -0.1291686,0.014155 -0.267847,5.245e-4 -0.3978965,5.245e-4 H 4.1459832 1.6996568 0.97754837 0.77614397 c -0.025934,0 -0.0647,-0.00696 -0.08835,0.00495 -0.029319,0.014759 -0.047929,0.055804 -0.065569,0.081749 -0.046273,0.068057 -0.1133748,0.1391284 -0.1408193,0.2167474 M 0.1228078,2.3604042 6.5972219,2.350771 C 6.5770234,2.2166748 6.5078176,2.0738046 6.4513543,1.9509926 6.4349756,1.9153678 6.4162396,1.8391093 6.3828621,1.816261 6.3645208,1.8037056 6.3239451,1.8113109 6.3024838,1.8113109 H 6.0961671 5.3052865 5.0498467 c -0.035147,0 -0.081245,-0.00763 -0.1129829,0.010064 -0.067675,0.037723 -0.1222337,0.1235955 -0.1768237,0.1777835 -0.024437,0.024258 -0.046019,0.058163 -0.083528,0.062096 -0.1055245,0.011064 -0.2180368,5.203e-4 -0.3242119,5.203e-4 H 3.6940514 1.6898322 0.62386257 0.34386136 c -0.028814,0 -0.086244,-0.010739 -0.11104976,0.00495 -0.02075,0.013124 -0.028625,0.055262 -0.036319,0.076932 -0.025303,0.071269 -0.056317,0.1431377 -0.073684,0.2167473 m -0.098246,0.7658406 6.734766,-0.00963 c -0.00151,-0.179144 -0.042759,-0.3651773 -0.083509,-0.53946 H 5.0596714 4.5242304 c -0.087097,0 -0.1786262,-0.00798 -0.2652643,5.053e-4 -0.038614,0.00378 -0.059093,0.036875 -0.083703,0.062111 -0.052684,0.05402 -0.1312621,0.1771797 -0.2110351,0.1869523 -0.084194,0.010314 -0.1754766,8.92e-4 -0.260352,8.92e-4 H 3.1880843 1.606323 0.46666897 0.1719308 c -0.026181,0 -0.08875,-0.011276 -0.1100378,0.00495 C 0.045394,2.8451412 0.046621,2.8906112 0.044457,2.9094972 0.036227,2.9813832 0.024569,3.053832 0.024561,3.1262445 M 0,3.5212066 0.039298,3.8198363 6.7200287,3.8053863 6.7495027,3.2707428 H 4.6323011 3.9396665 c -0.1116101,0 -0.2333023,-0.013584 -0.3438611,9.07e-4 -0.033062,0.00433 -0.051741,0.030281 -0.073704,0.052076 -0.044015,0.043678 -0.087683,0.088818 -0.1291035,0.134865 -0.023229,0.025823 -0.049707,0.05897 -0.087019,0.062163 -0.1192453,0.010202 -0.2437732,4.533e-4 -0.3635103,4.533e-4 H 2.2105362 3e-7 m 0.1326321,0.7224912 c 0.016793,0.071825 0.04327,0.1428002 0.069034,0.2119307 0.00795,0.021343 0.015902,0.063778 0.036179,0.076932 0.024788,0.016081 0.081993,0.00977 0.11092851,0.00977 H 0.61403817 1.6259725 c 1.2753654,0 2.5511766,-0.00963 3.8266832,-0.00963 0.2573136,0 0.5138681,-0.00482 0.7712314,-0.00482 h 0.2014042 c 0.022357,0 0.061768,0.00729 0.081061,-0.00568 0.030923,-0.020792 0.043485,-0.095767 0.054846,-0.1291863 0.04225,-0.1242807 0.104423,-0.2673305 0.104796,-0.3997784 H 4.1656324 3.3354534 c -0.1363764,0 -0.2766591,-0.0094 -0.4126334,4.348e-4 -0.086276,0.00624 -0.1644497,0.1357916 -0.2210686,0.1922295 -0.021142,0.021074 -0.042,0.05142 -0.073669,0.056718 -0.083555,0.013977 -0.1804399,0.00108 -0.2652643,0.00108 H 1.817552 0.1326324 m 0.28982587,0.7224903 c 0.02437,0.075486 0.090407,0.1504632 0.1343188,0.2167474 0.017087,0.025792 0.032725,0.061298 0.062192,0.075535 0.029736,0.014366 0.075717,0.00635 0.1080518,0.00635 h 0.2456151 c 0.29488133,0 0.58965313,-0.00482 0.88421443,-0.00482 0.9726411,0 1.9456655,-0.00482 2.9179073,-0.00482 h 0.9087759 0.2750889 c 0.040878,0 0.09318,0.00847 0.132613,-0.00276 0.043856,-0.012488 0.076072,-0.087257 0.099899,-0.1224742 C 6.2737889,5.0077868 6.3735604,4.8622532 6.4154667,4.7205419 H 3.6498407 2.7312402 c -0.1529365,0 -0.3091509,-0.00915 -0.4617564,2.117e-4 -0.037362,0.00229 -0.064159,0.037329 -0.087982,0.062404 -0.05223,0.054977 -0.1275171,0.1730898 -0.2067562,0.1857293 -0.1562405,0.024922 -0.3329305,-0.0027 -0.4912302,-0.0027 H 0.42245827 M 1.0463206,5.6983113 v 0.00963 c 0.085197,0.058836 0.1589459,0.1381641 0.2407028,0.2022975 0.031508,0.024716 0.064933,0.057437 0.1031584,0.071625 0.045595,0.016923 0.099595,0.010258 0.147369,0.010258 0.09359,0 0.1867303,-6.22e-4 0.2800012,-0.00463 0.2804417,-0.012041 0.564173,-1.894e-4 0.844916,-1.894e-4 0.6011669,0 1.2018928,-0.00482 1.8028148,-0.00482 H 5.069496 c 0.098533,0 0.2071268,0.012668 0.3045627,-0.00145 0.063896,-0.00926 0.1241687,-0.074689 0.1719305,-0.113763 0.1145541,-0.093717 0.226863,-0.1940042 0.3256146,-0.3038325 0.033149,-0.036867 0.074253,-0.071132 0.096843,-0.1155986 H 3.0456275 2.1073779 1.8077274 c -0.048932,0 -0.1040836,-0.00695 -0.1522813,0.00159 -0.037987,0.00673 -0.059434,0.040042 -0.083949,0.065846 -0.048552,0.051106 -0.1081157,0.1394558 -0.1714908,0.1712165 -0.02907,0.014568 -0.066774,0.007 -0.098246,0.007 -0.078231,0 -0.180479,-0.016909 -0.2554397,0.00482 m 0.7270207,0.515377 v 0.00482 c 0.2368126,0.1084125 0.4632495,0.2160941 0.7171961,0.2834514 0.8144353,0.2160217 1.7600475,0.1326007 2.4954494,-0.288268 l -0.093334,-0.00482 H 4.7010733 l -0.6484239,-0.00481 z"
     id="path2" />
</svg>
