<?xml version="1.0" encoding="UTF-8" standalone="no"?>
<!-- Created with Inkscape (http://www.inkscape.org/) -->

<svg
   xmlns:dc="http://purl.org/dc/elements/1.1/"
   xmlns:cc="http://creativecommons.org/ns#"
   xmlns:rdf="http://www.w3.org/1999/02/22-rdf-syntax-ns#"
   xmlns:svg="http://www.w3.org/2000/svg"
   xmlns="http://www.w3.org/2000/svg"
   xmlns:xlink="http://www.w3.org/1999/xlink"
   xmlns:sodipodi="http://sodipodi.sourceforge.net/DTD/sodipodi-0.dtd"
   xmlns:inkscape="http://www.inkscape.org/namespaces/inkscape"
   width="356.27097mm"
   height="355.57828mm"
   viewBox="0 0 463.15224 462.25174"
   version="1.1"
   id="svg8"
   inkscape:version="0.92.4 (5da689c313, 2019-01-14)"
   sodipodi:docname="logo_ecelular_simbolo2.svg"
   inkscape:export-filename="C:\Users\sku 30310\OneDrive\Electronica Celular\Images_logos\ECelular\logo_simbolo2_fondo_blanco.png"
   inkscape:export-xdpi="96"
   inkscape:export-ydpi="96">
  <defs
     id="defs2">
    <linearGradient
       inkscape:collect="always"
       id="linearGradient1013">
      <stop
         style="stop-color:#0c1d77;stop-opacity:1;"
         offset="0"
         id="stop1009" />
      <stop
         style="stop-color:#0c1d77;stop-opacity:0;"
         offset="1"
         id="stop1011" />
    </linearGradient>
    <linearGradient
       inkscape:collect="always"
       id="linearGradient1001">
      <stop
         style="stop-color:#15267f;stop-opacity:1;"
         offset="0"
         id="stop997" />
      <stop
         style="stop-color:#15267f;stop-opacity:0;"
         offset="1"
         id="stop999" />
    </linearGradient>
    <linearGradient
       inkscape:collect="always"
       id="linearGradient993">
      <stop
         style="stop-color:#15267f;stop-opacity:1;"
         offset="0"
         id="stop989" />
      <stop
         style="stop-color:#15267f;stop-opacity:0;"
         offset="1"
         id="stop991" />
    </linearGradient>
    <linearGradient
       inkscape:collect="always"
       id="linearGradient985">
      <stop
         style="stop-color:#15267f;stop-opacity:1;"
         offset="0"
         id="stop981" />
      <stop
         style="stop-color:#15267f;stop-opacity:0;"
         offset="1"
         id="stop983" />
    </linearGradient>
    <linearGradient
       inkscape:collect="always"
       id="linearGradient977">
      <stop
         style="stop-color:#15267f;stop-opacity:1;"
         offset="0"
         id="stop973" />
      <stop
         style="stop-color:#15267f;stop-opacity:0;"
         offset="1"
         id="stop975" />
    </linearGradient>
    <linearGradient
       inkscape:collect="always"
       id="linearGradient969">
      <stop
         style="stop-color:#15267f;stop-opacity:1;"
         offset="0"
         id="stop965" />
      <stop
         style="stop-color:#15267f;stop-opacity:0;"
         offset="1"
         id="stop967" />
    </linearGradient>
    <linearGradient
       inkscape:collect="always"
       id="linearGradient953">
      <stop
         style="stop-color:#15267f;stop-opacity:1;"
         offset="0"
         id="stop949" />
      <stop
         style="stop-color:#15267f;stop-opacity:0;"
         offset="1"
         id="stop951" />
    </linearGradient>
    <linearGradient
       inkscape:collect="always"
       id="linearGradient945">
      <stop
         style="stop-color:#15267f;stop-opacity:1;"
         offset="0"
         id="stop941" />
      <stop
         style="stop-color:#15267f;stop-opacity:0;"
         offset="1"
         id="stop943" />
    </linearGradient>
    <linearGradient
       inkscape:collect="always"
       id="linearGradient937">
      <stop
         style="stop-color:#15267f;stop-opacity:1;"
         offset="0"
         id="stop933" />
      <stop
         style="stop-color:#15267f;stop-opacity:0;"
         offset="1"
         id="stop935" />
    </linearGradient>
    <linearGradient
       inkscape:collect="always"
       id="linearGradient929">
      <stop
         style="stop-color:#15267f;stop-opacity:1;"
         offset="0"
         id="stop925" />
      <stop
         style="stop-color:#15267f;stop-opacity:0;"
         offset="1"
         id="stop927" />
    </linearGradient>
    <linearGradient
       inkscape:collect="always"
       xlink:href="#linearGradient929"
       id="linearGradient931"
       x1="1669.9213"
       y1="444.93597"
       x2="2225.6714"
       y2="452.20645"
       gradientUnits="userSpaceOnUse"
       gradientTransform="matrix(0.26458333,0,0,0.26458333,-164.97494,-36.894856)" />
    <linearGradient
       inkscape:collect="always"
       xlink:href="#linearGradient937"
       id="linearGradient939"
       x1="221.97115"
       y1="-5.34378"
       x2="306.69052"
       y2="3.7371297"
       gradientUnits="userSpaceOnUse"
       gradientTransform="translate(52.361361,47.294132)" />
    <linearGradient
       inkscape:collect="always"
       xlink:href="#linearGradient945"
       id="linearGradient947"
       x1="1642.8198"
       y1="582.37067"
       x2="2223.9438"
       y2="570.93268"
       gradientUnits="userSpaceOnUse"
       gradientTransform="matrix(0.26458333,0,0,0.26458333,-164.97494,-36.894856)" />
    <linearGradient
       inkscape:collect="always"
       xlink:href="#linearGradient953"
       id="linearGradient955"
       x1="1666.9022"
       y1="720.84027"
       x2="2293.2217"
       y2="720.78851"
       gradientUnits="userSpaceOnUse"
       gradientTransform="matrix(0.26458333,0,0,0.26458333,-164.97494,-36.894856)" />
    <linearGradient
       inkscape:collect="always"
       xlink:href="#linearGradient969"
       id="linearGradient971"
       x1="1638.5143"
       y1="1017.0392"
       x2="2320.8962"
       y2="1018.841"
       gradientUnits="userSpaceOnUse"
       gradientTransform="matrix(0.26458333,0,0,0.26458333,-164.97494,-36.894856)" />
    <linearGradient
       inkscape:collect="always"
       xlink:href="#linearGradient977"
       id="linearGradient979"
       x1="1624.1489"
       y1="1172.3088"
       x2="2305.0688"
       y2="1164.8108"
       gradientUnits="userSpaceOnUse"
       gradientTransform="matrix(0.26458333,0,0,0.26458333,-164.97494,-36.894856)" />
    <linearGradient
       inkscape:collect="always"
       xlink:href="#linearGradient985"
       id="linearGradient987"
       x1="1620.9393"
       y1="1307.7172"
       x2="2258.0764"
       y2="1311.3073"
       gradientUnits="userSpaceOnUse"
       gradientTransform="matrix(0.26458333,0,0,0.26458333,-164.97494,-36.894856)" />
    <linearGradient
       inkscape:collect="always"
       xlink:href="#linearGradient993"
       id="linearGradient995"
       x1="1624.377"
       y1="1447.6112"
       x2="2171.4756"
       y2="1458.4391"
       gradientUnits="userSpaceOnUse"
       gradientTransform="matrix(0.26458333,0,0,0.26458333,-164.97494,-36.894856)" />
    <linearGradient
       inkscape:collect="always"
       xlink:href="#linearGradient1001"
       id="linearGradient1003"
       x1="1632.47"
       y1="1591.8167"
       x2="1973.3781"
       y2="1599.5175"
       gradientUnits="userSpaceOnUse"
       gradientTransform="matrix(0.26458333,0,0,0.26458333,-164.97494,-36.894856)" />
    <linearGradient
       inkscape:collect="always"
       xlink:href="#linearGradient1013"
       id="linearGradient1015"
       x1="1683.802"
       y1="873.99628"
       x2="2322.7793"
       y2="877.38135"
       gradientUnits="userSpaceOnUse"
       gradientTransform="matrix(0.26458333,0,0,0.26458333,-164.97494,-36.894856)" />
  </defs>
  <sodipodi:namedview
     id="base"
     pagecolor="#ffffff"
     bordercolor="#666666"
     borderopacity="1.0"
     inkscape:pageopacity="0.0"
     inkscape:pageshadow="2"
     inkscape:zoom="0.32"
     inkscape:cx="554.53146"
     inkscape:cy="619.32904"
     inkscape:document-units="mm"
     inkscape:current-layer="layer3"
     showgrid="false"
     fit-margin-top="0"
     fit-margin-left="0"
     fit-margin-right="0"
     fit-margin-bottom="0"
     inkscape:window-width="1366"
     inkscape:window-height="705"
     inkscape:window-x="-8"
     inkscape:window-y="-8"
     inkscape:window-maximized="1"
     scale-x="1.3" />
  <metadata
     id="metadata5">
    <rdf:RDF>
      <cc:Work
         rdf:about="">
        <dc:format>image/svg+xml</dc:format>
        <dc:type
           rdf:resource="http://purl.org/dc/dcmitype/StillImage" />
        <dc:title></dc:title>
      </cc:Work>
    </rdf:RDF>
  </metadata>
  <g
     inkscape:groupmode="layer"
     id="layer2"
     inkscape:label="Capa 2"
     style="display:inline">
    <rect
       style="opacity:1;fill:#ffffff;fill-opacity:1;stroke:#2b191b;stroke-width:0.6140039;stroke-linecap:butt;stroke-linejoin:round;stroke-miterlimit:4;stroke-dasharray:none;stroke-dashoffset:0;stroke-opacity:1;paint-order:normal"
       id="rect67"
       width="454.75116"
       height="453.4519"
       x="3.4431551"
       y="3.0161564"
       ry="1.2466447" />
  </g>
  <g
     inkscape:groupmode="layer"
     id="layer3"
     inkscape:label="Capa 3"
     style="display:none">
    <flowRoot
       xml:space="preserve"
       id="flowRoot878"
       style="font-style:normal;font-variant:normal;font-weight:normal;font-stretch:normal;font-size:96px;line-height:1.25;font-family:'Arial Unicode MS';-inkscape-font-specification:'Arial Unicode MS';letter-spacing:0px;word-spacing:0px;fill:#000000;fill-opacity:1;stroke:none"
       transform="scale(0.34395833)"><flowRegion
         id="flowRegion880"
         style="font-size:96px;fill:#000000"><rect
           id="rect882"
           width="1238.8182"
           height="164.88083"
           x="93.303299"
           y="1167.1327"
           style="font-size:96px;fill:#000000" /></flowRegion><flowPara
         id="flowPara884" /></flowRoot>    <flowRoot
       xml:space="preserve"
       id="flowRoot888"
       style="font-style:normal;font-variant:normal;font-weight:normal;font-stretch:normal;font-size:48px;line-height:1.25;font-family:'Arial Unicode MS';-inkscape-font-specification:'Arial Unicode MS';letter-spacing:0px;word-spacing:0px;fill:#000000;fill-opacity:1;stroke:none"
       transform="scale(0.34395833)"><flowRegion
         id="flowRegion890"
         style="font-size:48px"><rect
           id="rect892"
           width="1253.5503"
           height="223.8092"
           x="78.571198"
           y="1103.2936"
           style="font-size:48px" /></flowRegion><flowPara
         id="flowPara894"></flowPara></flowRoot>    <flowRoot
       xml:space="preserve"
       id="flowRoot906"
       style="font-style:normal;font-variant:normal;font-weight:normal;font-stretch:normal;font-size:32px;line-height:1.25;font-family:Arial;-inkscape-font-specification:Arial;letter-spacing:0px;word-spacing:0px;fill:#000000;fill-opacity:1;stroke:none"
       transform="matrix(0.34395833,0,0,0.34395833,59.49714,-89.145686)"><flowRegion
         id="flowRegion908"><rect
           id="rect910"
           width="1389.728"
           height="166.96379"
           x="-39.285599"
           y="1466.6853" /></flowRegion><flowPara
         id="flowPara912"
         style="font-size:96px">ELECTRONICA CELULAR</flowPara></flowRoot>  </g>
  <g
     inkscape:label="Capa 1"
     inkscape:groupmode="layer"
     id="layer1"
     transform="translate(-40.965901,5.5036817)">
    <path
       style="fill:none;stroke:#000000;stroke-width:0.26458332px;stroke-linecap:butt;stroke-linejoin:miter;stroke-opacity:1"
       d="M 149.21684,91.323348 391.03232,90.762291 C 387.15374,85.338743 380.59495,79.915194 373.07849,74.491646 H 168.85384 c -10.37539,7.908404 -15.25561,12.519699 -19.637,16.831702 z"
       id="path828"
       inkscape:connector-curvature="0"
       sodipodi:nodetypes="ccccc" />
    <path
       style="fill:none;stroke:#000000;stroke-width:0.26458332px;stroke-linecap:butt;stroke-linejoin:miter;stroke-opacity:1"
       d="m 118.46263,128.97649 h 304.00965 c -6.68747,-11.49897 -13.59178,-22.13058 -21.48641,-28.80091 l -12.80041,-0.457159 -11.88609,12.800399 -247.32212,0.45716 z"
       id="path830"
       inkscape:connector-curvature="0"
       sodipodi:nodetypes="ccccccc" />
    <path
       style="fill:none;stroke:#000000;stroke-width:0.26458332px;stroke-linecap:butt;stroke-linejoin:miter;stroke-opacity:1"
       d="m 100.17632,168.74918 340.58224,-0.45716 c -2.99207,-10.1131 -6.76282,-19.44752 -10.97176,-28.34375 l -75.88814,-0.45716 -13.25756,14.17188 -234.97888,-0.91432 z"
       id="path832"
       inkscape:connector-curvature="0"
       sodipodi:nodetypes="ccccccc" />
    <path
       style="fill:none;stroke:#000000;stroke-width:0.26458332px;stroke-linecap:butt;stroke-linejoin:miter;stroke-opacity:1"
       d="M 95.147601,209.43619 H 449.44454 c -1.52385,-10.12734 -3.0477,-19.73536 -4.57155,-28.80092 l -128.91838,0.45716 -11.42894,13.25756 -207.549441,-0.45716 z"
       id="path834"
       inkscape:connector-curvature="0"
       sodipodi:nodetypes="ccccccc" />
    <path
       style="fill:none;stroke:#000000;stroke-width:0.26458332px;stroke-linecap:butt;stroke-linejoin:miter;stroke-opacity:1"
       d="m 95.826651,247.23472 350.599819,-0.85931 c 1.72593,-7.14633 2.28418,-16.62803 1.71863,-28.35733 H 281.43834 l -12.88971,14.17868 -174.870263,-0.85931 c 0.716095,5.29909 1.432189,10.59818 2.148284,15.89727 z"
       id="path836"
       inkscape:connector-curvature="0"
       sodipodi:nodetypes="ccccccc" />
    <path
       style="fill:none;stroke:#000000;stroke-width:0.26458332px;stroke-linecap:butt;stroke-linejoin:miter;stroke-opacity:1"
       d="m 106.56807,285.90384 329.117,-0.85931 c 4.19023,-9.30923 7.12355,-18.61847 9.02277,-27.9277 L 244.9175,256.68718 232.0278,270.00654 H 100.98253 c 2.58792,9.65557 4.12245,12.99071 5.58554,15.8973 z"
       id="path838"
       inkscape:connector-curvature="0"
       sodipodi:nodetypes="ccccccc" />
    <path
       style="fill:none;stroke:#000000;stroke-width:0.26458332px;stroke-linecap:butt;stroke-linejoin:miter;stroke-opacity:1"
       d="m 126.76192,325.43225 288.72928,-0.85932 c 5.98311,-9.45245 11.04964,-18.9049 15.8973,-28.35735 l -219.55455,-0.85931 -11.60074,13.74902 h -84.21269 z"
       id="path840"
       inkscape:connector-curvature="0"
       sodipodi:nodetypes="ccccccc" />
    <path
       style="fill:none;stroke:#000000;stroke-width:0.26458332px;stroke-linecap:butt;stroke-linejoin:miter;stroke-opacity:1"
       d="m 168.00898,363.67168 209.24278,-1.28897 c 11.75961,-7.86137 21.42663,-17.81533 30.93527,-27.92767 l -228.57735,-0.42965 -12.88968,13.74899 -18.47524,3e-5 c 5.94777,6.5797 12.67426,11.60196 19.76422,15.89727 z"
       id="path842"
       inkscape:connector-curvature="0"
       sodipodi:nodetypes="ccccccc" />
    <path
       style="fill:none;stroke:#000000;stroke-width:0.26458332px;stroke-linecap:butt;stroke-linejoin:miter;stroke-opacity:1"
       d="m 187.34351,375.70208 c 22.65391,14.57456 51.69044,20.63896 84.64237,21.48284 30.87958,-1.15371 59.48593,-7.30855 84.64236,-21.05319 z"
       id="path844"
       inkscape:connector-curvature="0"
       sodipodi:nodetypes="cccc" />
    <path
       style="fill:url(#linearGradient939);fill-opacity:1;stroke:#10121c;stroke-width:2;stroke-linecap:butt;stroke-linejoin:miter;stroke-miterlimit:4;stroke-dasharray:none;stroke-opacity:1"
       d="m 209.24992,53.732544 125.11567,0.561057 c -18.31857,-5.806879 -37.28011,-10.97078 -60.03309,-12.343249 -23.38988,0.536032 -44.67294,5.285679 -65.08258,11.782192 z"
       id="path826"
       inkscape:connector-curvature="0"
       sodipodi:nodetypes="cccc" />
    <path
       style="opacity:0.93500001;fill:url(#linearGradient931);fill-opacity:1;stroke:#0e0f0f;stroke-width:2;stroke-linecap:butt;stroke-linejoin:miter;stroke-miterlimit:4;stroke-dasharray:none;stroke-dashoffset:0;stroke-opacity:1"
       d="m 153.29349,88.283735 c 1.315,-1.368264 5.44647,-4.978228 9.18101,-8.022143 l 6.79006,-5.534392 h 101.65881 101.65882 l 4.60735,3.535434 c 2.53404,1.944489 6.45429,5.382696 8.71169,7.64046 l 4.10435,4.105029 -2.61186,0.17381 c -1.4365,0.09559 -55.23471,0.26735 -119.5515,0.38168 l -116.93967,0.207869 z"
       id="path846"
       inkscape:connector-curvature="0" />
    <path
       style="opacity:0.93500001;fill:url(#linearGradient947);fill-opacity:1;stroke:#070704;stroke-width:2;stroke-linecap:butt;stroke-linejoin:miter;stroke-miterlimit:4;stroke-dasharray:none;stroke-dashoffset:0;stroke-opacity:1"
       d="m 122.23058,124.16598 c 1.49627,-2.36 3.65284,-5.6626 4.79232,-7.33911 l 2.07177,-3.04821 123.73925,-0.4753 123.73924,-0.47531 6.06973,-6.45974 6.0697,-6.459744 6.38712,0.532044 6.38712,0.53204 3.2471,3.48124 c 4.16094,4.46098 8.30583,10.10772 13.09989,17.84648 l 3.81389,6.15653 H 270.57888 119.51003 Z"
       id="path848"
       inkscape:connector-curvature="0" />
    <path
       style="opacity:0.93500001;fill:url(#linearGradient955);fill-opacity:1;stroke:#070704;stroke-width:2;stroke-linecap:butt;stroke-linejoin:miter;stroke-miterlimit:4;stroke-dasharray:none;stroke-dashoffset:0;stroke-opacity:1"
       d="m 103.38103,160.73202 2.43972,-7.27589 117.83944,0.18567 117.83944,0.18567 6.34306,-7.09112 6.3431,-7.09112 6.64429,0.3758 c 3.65438,0.20669 20.61279,0.3809 37.6854,0.38713 l 31.04113,0.0113 2.80704,6.51832 c 1.5439,3.58508 3.97362,9.79247 5.39941,13.79422 l 2.59236,7.27589 H 270.64836 100.94128 Z"
       id="path850"
       inkscape:connector-curvature="0" />
    <path
       style="opacity:1;fill:url(#linearGradient1015);fill-opacity:1;stroke:#070704;stroke-width:2;stroke-linecap:butt;stroke-linejoin:miter;stroke-miterlimit:4;stroke-dasharray:none;stroke-dashoffset:0;stroke-opacity:1"
       d="m 95.880933,206.62614 c 0.239469,-1.33391 0.656852,-4.67081 0.927518,-7.41532 l 0.492122,-4.99003 103.816507,0.38286 103.81649,0.38285 5.59684,-6.7318 5.59684,-6.7318 64.22392,-0.0413 64.2239,-0.0413 2.01319,12.87273 c 1.10723,7.08001 2.00967,13.29251 2.00538,13.80555 -0.006,0.7436 -35.82344,0.93281 -176.57794,0.93281 H 95.445532 Z"
       id="path852"
       inkscape:connector-curvature="0" />
    <path
       style="opacity:0.93500001;fill:url(#linearGradient971);fill-opacity:1;stroke:#070704;stroke-width:2;stroke-linecap:butt;stroke-linejoin:miter;stroke-miterlimit:4;stroke-dasharray:none;stroke-dashoffset:0;stroke-opacity:1"
       d="m 96.074071,245.24435 c -0.193498,-0.82087 -0.572117,-3.50735 -0.841375,-5.96996 -0.269262,-2.46261 -0.664036,-5.10119 -0.877277,-5.86353 -0.376502,-1.34597 2.141384,-1.37848 87.056711,-1.12385 l 87.44445,0.2622 6.47168,-6.92523 6.47168,-6.92522 83.127,0.0269 83.12698,0.0269 -0.46384,11.38025 c -0.25511,6.25914 -0.67072,12.26418 -0.92358,13.34455 l -0.45974,1.96429 -38.92116,0.49525 c -21.40662,0.27239 -100.10733,0.56378 -174.89043,0.64757 -135.417404,0.15168 -135.970714,0.14626 -136.321099,-1.34019 z"
       id="path854"
       inkscape:connector-curvature="0" />
    <path
       style="opacity:0.93500001;fill:url(#linearGradient979);fill-opacity:1;stroke:#070704;stroke-width:2;stroke-linecap:butt;stroke-linejoin:miter;stroke-miterlimit:4;stroke-dasharray:none;stroke-dashoffset:0;stroke-opacity:1"
       d="m 105.31887,281.82447 c -0.78838,-1.8392 -1.80248,-4.71461 -2.25357,-6.38976 -0.45106,-1.67516 -1.00536,-3.52843 -1.23174,-4.11843 -0.35602,-0.92773 8.45852,-1.0727 65.23498,-1.0727 h 65.64662 l 6.15476,-6.41093 6.15474,-6.41094 99.32588,0.1006 c 54.62921,0.0553 99.41575,0.1905 99.52566,0.30038 0.41709,0.41709 -3.47414,13.81678 -5.79376,19.95133 l -2.42158,6.40403 -66.48301,0.49477 c -36.56566,0.27212 -110.57009,0.49498 -164.45429,0.49522 h -97.97129 z"
       id="path856"
       inkscape:connector-curvature="0" />
    <path
       style="opacity:0.93500001;fill:url(#linearGradient987);fill-opacity:1;stroke:#070704;stroke-width:2;stroke-linecap:butt;stroke-linejoin:miter;stroke-miterlimit:4;stroke-dasharray:none;stroke-dashoffset:0;stroke-opacity:1"
       d="m 122.11046,317.44363 -4.86574,-7.27588 41.68458,-0.37314 41.6846,-0.37312 5.89261,-7.01148 5.89259,-7.01146 29.03924,0.48181 c 15.97157,0.265 65.1138,0.48183 109.20497,0.48183 h 80.1657 l -3.87418,7.27591 c -2.1308,4.00174 -5.58197,10.15939 -7.66927,13.68369 l -3.79508,6.40781 -63.78712,0.49496 c -35.0829,0.27223 -99.99414,0.49498 -144.24713,0.49498 H 126.9762 Z"
       id="path858"
       inkscape:connector-curvature="0" />
    <path
       style="opacity:0.93500001;fill:url(#linearGradient995);fill-opacity:1;stroke:#070704;stroke-width:2;stroke-linecap:butt;stroke-linejoin:miter;stroke-miterlimit:4;stroke-dasharray:none;stroke-dashoffset:0;stroke-opacity:1"
       d="m 162.02751,358.98935 c -3.48871,-2.49832 -7.68141,-5.85811 -9.31711,-7.46619 l -2.974,-2.92376 h 8.33991 8.3399 l 6.8824,-7.08935 6.88239,-7.08932 h 58.33525 c 32.08441,0 83.14269,0.22376 113.46286,0.49723 l 55.1276,0.4972 -9.44657,9.11019 c -5.1956,5.01063 -11.92234,10.97351 -14.9483,13.25092 l -5.50172,4.14072 -96.58419,0.44128 c -53.12129,0.2427 -100.11018,0.60603 -104.41977,0.80737 l -7.83555,0.36613 z"
       id="path860"
       inkscape:connector-curvature="0" />
    <path
       style="opacity:0.93500001;fill:url(#linearGradient1003);fill-opacity:1;stroke:#070704;stroke-width:2;stroke-linecap:butt;stroke-linejoin:miter;stroke-miterlimit:4;stroke-dasharray:none;stroke-dashoffset:0;stroke-opacity:1"
       d="m 252.32324,395.51098 c -22.33946,-2.28864 -44.63084,-8.63372 -58.58028,-16.67441 l -4.47749,-2.5809 77.60956,0.0584 c 42.68526,0.0321 79.62326,0.27379 82.08442,0.53707 l 4.47487,0.47869 -6.71359,3.09007 c -27.07029,12.45954 -63.397,18.26699 -94.39749,15.09106 z"
       id="path862"
       inkscape:connector-curvature="0" />
  </g>
</svg>
